<svg width="27" height="32" viewBox="0 0 27 32" fill="none" xmlns="http://www.w3.org/2000/svg">
<path d="M26.625 25.7084V27.1667H0.375V25.7084L3.29167 22.7917V14.0417C3.29167 9.52085 6.25208 5.5396 10.5833 4.25627V3.83335C10.5833 3.05981 10.8906 2.31794 11.4376 1.77096C11.9846 1.22398 12.7265 0.916687 13.5 0.916687C14.2735 0.916687 15.0154 1.22398 15.5624 1.77096C16.1094 2.31794 16.4167 3.05981 16.4167 3.83335V4.25627C20.7479 5.5396 23.7083 9.52085 23.7083 14.0417V22.7917L26.625 25.7084ZM16.4167 28.625C16.4167 29.3986 16.1094 30.1404 15.5624 30.6874C15.0154 31.2344 14.2735 31.5417 13.5 31.5417C12.7265 31.5417 11.9846 31.2344 11.4376 30.6874C10.8906 30.1404 10.5833 29.3986 10.5833 28.625" fill="#020617"/>
</svg>
