<svg width="18" height="18" viewBox="0 0 18 18" fill="none" xmlns="http://www.w3.org/2000/svg">
<path d="M10.5 9V14.91C10.53 15.135 10.455 15.375 10.2825 15.5325C10.2131 15.602 10.1307 15.6572 10.0399 15.6948C9.94921 15.7325 9.85195 15.7518 9.75373 15.7518C9.6555 15.7518 9.55824 15.7325 9.46751 15.6948C9.37678 15.6572 9.29436 15.602 9.22498 15.5325L7.71748 14.025C7.63568 13.945 7.57348 13.8472 7.53575 13.7392C7.49802 13.6313 7.48577 13.516 7.49998 13.4025V9H7.47748L3.15748 3.465C3.03568 3.30865 2.98073 3.11044 3.00462 2.9137C3.02851 2.71695 3.1293 2.53766 3.28498 2.415C3.42748 2.31 3.58498 2.25 3.74998 2.25H14.25C14.415 2.25 14.5725 2.31 14.715 2.415C14.8707 2.53766 14.9714 2.71695 14.9953 2.9137C15.0192 3.11044 14.9643 3.30865 14.8425 3.465L10.5225 9H10.5Z" fill="black"/>
</svg>
